<?xml version="1.0" standalone="no"?><!DOCTYPE svg PUBLIC "-//W3C//DTD SVG 1.1//EN" "http://www.w3.org/Graphics/SVG/1.1/DTD/svg11.dtd"><svg t="1587394605659" class="icon" viewBox="0 0 1024 1024" version="1.1" xmlns="http://www.w3.org/2000/svg" p-id="1921" xmlns:xlink="http://www.w3.org/1999/xlink" width="200" height="200"><defs><style type="text/css"></style></defs><path d="M512 0C229.2224 0 0 229.2224 0 512s229.2224 512 512 512 512-229.2224 512-512S794.7776 0 512 0zM496.1536 832.3584c-24.576 0-44.5184-23.7056-44.5184-52.9152l-0.1792-322.4064c0-29.2352 19.9424-52.9152 44.5184-52.9152 24.6016 0 44.5184 23.7056 44.5184 52.9152l0.1792 322.4064C540.672 808.6528 520.7296 832.3584 496.1536 832.3584zM496.1536 307.4304c-26.4192 0-47.8464-25.4464-47.8464-56.8576l-0.1792-1.7152c0-31.4112 21.4272-56.8576 47.8464-56.8576s47.8464 25.472 47.8464 56.8576l0.1792 1.7152C544 281.9584 522.5728 307.4304 496.1536 307.4304z" p-id="1922" fill="#ff3276"></path></svg>