<?xml version="1.0" encoding="utf-8"?>
<!-- Generator: Adobe Illustrator 22.0.1, SVG Export Plug-In . SVG Version: 6.00 Build 0)  -->
<svg version="1.1" id="图层_1" xmlns="http://www.w3.org/2000/svg" xmlns:xlink="http://www.w3.org/1999/xlink" x="0px" y="0px"
	 viewBox="0 0 200 200" style="enable-background:new 0 0 200 200;" xml:space="preserve">
<style type="text/css">
	.st0{fill:#FF3276;}
</style>
<path class="st0" d="M142.5,45.2c0-2.5,1-4.9,2.8-6.7c1.8-1.7,4.3-2.8,6.8-2.8c2.5,0,5,1,6.8,2.8c1.8,1.7,2.8,4.2,2.8,6.7
	c0,2.5-1,4.9-2.8,6.7c-1.8,1.7-4.3,2.8-6.8,2.8c-2.5,0-5-1-6.8-2.8C143.6,50.1,142.5,47.7,142.5,45.2L142.5,45.2z M116.9,29.5
	c0-3,1.3-5.9,3.4-8c2.1-2.1,5.1-3.3,8.2-3.3c3,0,6,1.2,8.2,3.3c2.1,2.1,3.4,5,3.4,8c0,3-1.2,5.9-3.4,8c-2.1,2.1-5.1,3.3-8.2,3.3
	c-3,0-6-1.2-8.2-3.3S116.9,32.5,116.9,29.5L116.9,29.5z M81.7,24.5c0-3.5,1.5-6.9,3.9-9.3c2.5-2.4,6-3.9,9.5-3.9
	c3.5,0,7,1.4,9.5,3.9c2.5,2.4,3.9,5.9,3.9,9.3c0,3.5-1.5,6.9-3.9,9.3c-2.5,2.4-6,3.9-9.5,3.9c-3.5,0-7-1.4-9.5-3.9
	C83.1,31.3,81.7,27.9,81.7,24.5L81.7,24.5z M38.2,26.3c0-4.4,1.9-8.8,5.1-12c3.2-3.1,7.7-5,12.3-5c4.5,0,9.1,1.8,12.3,5
	c3.2,3.1,5.1,7.6,5.1,12s-1.9,8.9-5.1,12c-3.2,3.1-7.7,5-12.3,5c-4.5,0-9.1-1.8-12.3-5C40.1,35.2,38.2,30.8,38.2,26.3
	C38.2,26.3,38.2,26.3,38.2,26.3z M119.2,47.4L119.2,47.4c-0.4,0-0.7,0-1.1,0c-0.4,0-0.7,0-1.1,0H76.5c-0.4,0-0.7,0-1.1,0
	c-0.4,0-0.7,0-1.1,0h-0.8v0c-15.4,0.9-27.7,13.4-27.7,28.8c0,10.3,5.6,19.4,14,24.5v0l0.6,0.3c0,0,16.7,8.7-0.6,49.7h0
	c-1.4,3.4-2.2,7-2.2,10.9c0,15.9,13.2,28.9,29.5,28.9c7.1,0,13.7-2.5,18.8-6.6v0l0,0c29.4-23.7,48.3-59.4,48.9-99.5
	c0-0.4,0.1-0.7,0.1-1.1C155,63.9,139.1,48,119.2,47.4L119.2,47.4L119.2,47.4z"/>
</svg>
