<?xml version="1.0" standalone="no"?><!DOCTYPE svg PUBLIC "-//W3C//DTD SVG 1.1//EN" "http://www.w3.org/Graphics/SVG/1.1/DTD/svg11.dtd"><svg t="1571302461395" class="icon" viewBox="0 0 1024 1024" version="1.1" xmlns="http://www.w3.org/2000/svg" p-id="11458" xmlns:xlink="http://www.w3.org/1999/xlink" width="200" height="200"><defs><style type="text/css"></style></defs><path d="M907.742 185.958H640v27c0 17.673-14.327 32-32 32s-32-14.327-32-32v-27H124.334c-35.032 0-60.459 23.284-60.459 55.364V388.16c0 17.539 12.966 36.971 31.971 39.043 1.013 0.316 2.06 0.491 3.104 0.517 37.144 10.538 62.863 44.224 62.863 82.804 0 38.584-25.719 72.271-62.862 82.805-1.043 0.025-2.09 0.201-3.103 0.517-19.007 2.07-31.974 21.504-31.974 39.044v146.837c0 32.949 26.557 58.76 60.459 58.76H576v-22c0-17.673 14.327-32 32-32 17.673 0 32 14.327 32 32v22h267.742c31.577 0 51.981-23.064 51.981-58.76V632.932c0-6.908-0.394-15.799-3.464-23.292-2.378-5.805-6.063-10.136-10.78-12.806l-1.108-0.588c-2.458-1.217-5.172-2.008-8.108-2.349a11.345 11.345 0 0 0-3.135-0.526c-37.144-10.539-62.864-44.226-62.864-82.805 0-38.579 25.711-72.262 62.847-82.8l5.387-0.886a23.888 23.888 0 0 0 5.872-1.993l0.591-0.303c4.967-2.642 8.835-7.075 11.3-13.091 3.07-7.493 3.464-16.383 3.464-23.292V241.323c-0.001-34.668-19.434-55.365-51.983-55.365zM639.875 710.212c0 17.673-14.327 32-32 32-17.673 0-32-14.327-32-32v-64c0-17.673 14.327-32 32-32 17.673 0 32 14.327 32 32v64z m0-165.333c0 17.673-14.327 32-32 32-17.673 0-32-14.327-32-32v-64c0-17.673 14.327-32 32-32 17.673 0 32 14.327 32 32v64z m0-164.921c0 17.673-14.327 32-32 32-17.673 0-32-14.327-32-32v-64c0-17.673 14.327-32 32-32 17.673 0 32 14.327 32 32v64z" p-id="11459"></path></svg>