<?xml version="1.0" encoding="utf-8"?>
<!-- Generator: Adobe Illustrator 22.0.1, SVG Export Plug-In . SVG Version: 6.00 Build 0)  -->
<svg version="1.1" id="图层_1" xmlns="http://www.w3.org/2000/svg" xmlns:xlink="http://www.w3.org/1999/xlink" x="0px" y="0px"
	 viewBox="0 0 200 200" style="enable-background:new 0 0 200 200;" xml:space="preserve">
<style type="text/css">
	.st0{fill:#FF3276;}
</style>
<path class="st0" d="M98,0c26.3,0,47.6,21.6,47.6,48.2c0,26.7-21.3,48.2-47.6,48.2S50.5,74.9,50.5,48.2C50.5,21.6,71.8,0,98,0L98,0z
	 M98,0c26.3,0,47.6,21.6,47.6,48.2c0,26.7-21.3,48.2-47.6,48.2S50.5,74.9,50.5,48.2C50.5,21.6,71.8,0,98,0L98,0z M80.2,112.6h39.7
	c33.9,0,61.4,27.9,61.4,62.3v4c0,13.6-27.5,14.1-61.4,14.1H80.2c-33.9,0-61.4,0-61.4-14.1v-4C18.8,140.4,46.2,112.5,80.2,112.6
	L80.2,112.6z"/>
</svg>
