<?xml version="1.0" encoding="iso-8859-1"?>
<!-- Generator: Adobe Illustrator 22.1.0, SVG Export Plug-In . SVG Version: 6.00 Build 0)  -->
<svg version="1.1" id="&#x56FE;&#x5C42;_1" xmlns="http://www.w3.org/2000/svg" xmlns:xlink="http://www.w3.org/1999/xlink" x="0px"
	 y="0px" viewBox="0 0 200 200" style="enable-background:new 0 0 200 200;" xml:space="preserve">
<linearGradient id="SVGID_1_" gradientUnits="userSpaceOnUse" x1="181.4437" y1="160.2655" x2="22.5504" y2="40.5308">
	<stop  offset="0" style="stop-color:#FF900E"/>
	<stop  offset="0.9995" style="stop-color:#FFCC00"/>
</linearGradient>
<path style="fill:url(#SVGID_1_);" d="M165.523,177.737H38.47c-3.05,0-5.524-2.477-5.524-5.527V28.584
	c0-3.05,2.474-5.524,5.524-5.524l127.054,0c3.047,0,5.527,2.474,5.527,5.524v143.626
	C171.051,175.26,168.573,177.737,165.523,177.737z M74.251,57.586c0-0.765-0.619-1.38-1.38-1.38H56.422
	c-0.763,0-1.38,0.617-1.38,1.38v8.286c0,0.763,0.617,1.38,1.38,1.38h16.448c0.762,0,1.38-0.617,1.38-1.38V57.586z M148.951,57.586
	c0-0.765-0.619-1.38-1.377-1.38H82.601c-0.765,0-1.382,0.617-1.382,1.38v8.286c0,0.763,0.617,1.38,1.382,1.38l64.974,0
	c0.758,0,1.377-0.617,1.377-1.38V57.586z M148.951,96.254c0-0.762-0.619-1.38-1.377-1.38H56.422c-0.763,0-1.38,0.619-1.38,1.38
	v8.286c0,0.765,0.619,1.383,1.38,1.383h91.152c0.758,0,1.377-0.619,1.377-1.383V96.254z M148.951,134.928
	c0-0.765-0.619-1.387-1.377-1.387l-91.152,0c-0.763,0-1.38,0.622-1.38,1.387v8.278c0,0.765,0.619,1.387,1.38,1.387l91.152,0
	c0.758,0,1.377-0.622,1.377-1.387V134.928z"/>
</svg>
